<svg xmlns="http://www.w3.org/2000/svg" style="display:none">
  <defs>
    <symbol id="icon-skull" viewBox="0 0 24 24">
      <path fill="currentColor" d="M12 2C7.58 2 4 5.58 4 10c0 2.9 1.54 5.44 3.85 6.86L7 20.5c-.1.4.2.8.6.8h2.3c.35 0 .65-.24.73-.58L11 18.6h2l.37 2.12c.08.34.38.58.73.58h2.3c.4 0 .7-.4.6-.8l-.85-3.64C17.46 15.44 19 12.9 19 10c0-4.42-3.58-8-7-8Zm-3.5 6.5a1.5 1.8 0 1 1 0 3.6 1.5 1.8 0 0 1 0-3.6Zm7 0a1.5 1.8 0 1 1 0 3.6 1.5 1.8 0 0 1 0-3.6ZM12 13.2c.9 0 1.7.3 2.2.8-.5.6-1.3 1-2.2 1s-1.7-.4-2.2-1c.5-.5 1.3-.8 2.2-.8Z"/>
      <path stroke="currentColor" stroke-width="1.4" stroke-linecap="round" d="M2.5 19.5l5-3M2.5 16.5l5 3M21.5 19.5l-5-3M21.5 16.5l-5 3"/>
    </symbol>

    <symbol id="icon-map" viewBox="0 0 24 24">
      <path fill="currentColor" d="M9 3 3 5v16l6-2 6 2 6-2V3l-6 2-6-2Zm0 2.2 6 2v11.6l-6-2Z"/>
      <path stroke="currentColor" stroke-width="1.3" stroke-dasharray="2.4 2" d="M6 8.5C9 11 8 13.5 11 16"/>
      <path fill="currentColor" d="m14.3 14-1.2 1.2 1.2 1.2 1.2-1.2Zm2.4-2.4-1.2 1.2 1.2 1.2 1.2-1.2Z"/>
    </symbol>

    <symbol id="icon-gear" viewBox="0 0 24 24">
      <path fill="currentColor" d="M12 8.4a3.6 3.6 0 1 0 0 7.2 3.6 3.6 0 0 0 0-7.2Zm9.4 2.4-1.9-.4a7.8 7.8 0 0 0-.66-1.6l1.08-1.62a.9.9 0 0 0-.12-1.14l-1.36-1.36a.9.9 0 0 0-1.14-.12L15.8 5.66a7.8 7.8 0 0 0-1.6-.66l-.4-1.9a.9.9 0 0 0-.88-.7h-1.84a.9.9 0 0 0-.88.7l-.4 1.9c-.57.17-1.11.4-1.6.66L6.6 4.58a.9.9 0 0 0-1.14.12L4.1 6.06a.9.9 0 0 0-.12 1.14l1.08 1.62c-.27.5-.49 1.04-.66 1.6l-1.9.4a.9.9 0 0 0-.7.88v1.84a.9.9 0 0 0 .7.88l1.9.4c.17.56.39 1.1.66 1.6l-1.08 1.62a.9.9 0 0 0 .12 1.14l1.36 1.36a.9.9 0 0 0 1.14.12l1.62-1.08c.5.27 1.04.49 1.6.66l.4 1.9a.9.9 0 0 0 .88.7h1.84a.9.9 0 0 0 .88-.7l.4-1.9c.56-.17 1.1-.39 1.6-.66l1.62 1.08a.9.9 0 0 0 1.14-.12l1.36-1.36a.9.9 0 0 0 .12-1.14l-1.08-1.62c.27-.5.49-1.04.66-1.6l1.9-.4a.9.9 0 0 0 .7-.88v-1.84a.9.9 0 0 0-.7-.88Z"/>
    </symbol>

    <symbol id="icon-compass" viewBox="0 0 24 24">
      <circle cx="12" cy="12" r="9.2" fill="none" stroke="currentColor" stroke-width="1.6"/>
      <path fill="currentColor" d="M15.5 8.5 13 13l-4.5 2.5L11 11Z"/>
      <circle cx="12" cy="12" r="1.1" fill="currentColor"/>
    </symbol>

    <symbol id="icon-coin" viewBox="0 0 24 24">
      <circle cx="12" cy="12" r="9" fill="currentColor"/>
      <circle cx="12" cy="12" r="9" fill="none" stroke="#00000030" stroke-width="1.4"/>
      <text x="12" y="16.5" font-size="11" font-weight="800" text-anchor="middle" fill="#00000055">$</text>
    </symbol>

    <symbol id="icon-spade" viewBox="0 0 24 24">
      <path fill="currentColor" d="M11.2 2h1.6l1 5.4h4.7c.66 0 1.1.68.84 1.28l-2.9 6.62c-.2.46-.65.7-1.14.7h-2.5l-.3 3.6h2.9v2H8.6v-2h2.9l-.3-3.6H8.7c-.5 0-.95-.24-1.14-.7L4.66 8.68A1 1 0 0 1 5.5 7.4h4.7Z"/>
    </symbol>

    <symbol id="icon-lantern" viewBox="0 0 24 24">
      <path fill="currentColor" d="M9 2h6v2H9Zm1 2h4l1 3H9Zm-1.5 4h8l1 8a2 2 0 0 1-2 2.2h-6a2 2 0 0 1-2-2.2ZM10 20h4v2h-4Z"/>
      <circle cx="12" cy="13" r="2.6" fill="#00000030"/>
    </symbol>

    <symbol id="icon-hourglass" viewBox="0 0 24 24">
      <path fill="currentColor" d="M6 2h12v2.2c0 2.1-1.5 4-3.6 5.1l-.9.6.9.6C16.5 11.6 18 13.5 18 15.6V17.8H6V15.6c0-2.1 1.5-4 3.6-5.1l.9-.6-.9-.6C7.5 8.2 6 6.3 6 4.2Zm-1 17.8h14V22H5Z"/>
    </symbol>

    <symbol id="icon-warning" viewBox="0 0 24 24">
      <path fill="currentColor" d="M12 2 1.5 21h21Z"/>
      <rect x="11" y="9" width="2" height="6.4" fill="#2b1608"/>
      <rect x="11" y="16.6" width="2" height="2" fill="#2b1608"/>
    </symbol>

    <symbol id="icon-trophy" viewBox="0 0 24 24">
      <path fill="currentColor" d="M7 3h10v3.2h2.7c.5 0 .8.5.6 1-1 2.4-2.7 4-4.6 4.5-.6 1.5-1.7 2.6-3.2 3.1V17h3v2H8.5v-2h3v-2.2c-1.5-.5-2.6-1.6-3.2-3.1-1.9-.5-3.6-2.1-4.6-4.5-.2-.5.1-1 .6-1H7Zm0 2H4.7c.7 1.3 1.7 2.2 2.8 2.6Zm10 0v2.6c1.1-.4 2.1-1.3 2.8-2.6Z"/>
      <rect x="7" y="19.6" width="10" height="1.8" rx="0.4" fill="currentColor"/>
    </symbol>

    <symbol id="icon-replay" viewBox="0 0 24 24">
      <path fill="currentColor" d="M12 4V1L7.5 5 12 9V6a6 6 0 1 1-5.65 8 1 1 0 1 0-1.9.64A8 8 0 1 0 12 4Z"/>
    </symbol>

    <symbol id="icon-magnifier" viewBox="0 0 24 24">
      <circle cx="10.5" cy="10.5" r="6.5" fill="none" stroke="currentColor" stroke-width="2"/>
      <path stroke="currentColor" stroke-width="2.4" stroke-linecap="round" d="m15.3 15.3 5 5"/>
    </symbol>

    <symbol id="icon-speaker" viewBox="0 0 24 24">
      <path fill="currentColor" d="M4 9h3.5L12 5.5v13L7.5 15H4Z"/>
      <path fill="none" stroke="currentColor" stroke-width="1.8" stroke-linecap="round" d="M15.3 8.8a5 5 0 0 1 0 6.4M17.6 6.3a8.6 8.6 0 0 1 0 11.4"/>
    </symbol>

    <symbol id="icon-vibrate" viewBox="0 0 24 24">
      <rect x="8" y="3" width="8" height="18" rx="1.6" fill="none" stroke="currentColor" stroke-width="1.8"/>
      <circle cx="12" cy="17.5" r="1" fill="currentColor"/>
      <path fill="none" stroke="currentColor" stroke-width="1.8" stroke-linecap="round" d="M3 9v6M21 9v6"/>
    </symbol>

    <symbol id="icon-chest" viewBox="0 0 24 24">
      <path fill="currentColor" d="M3 9h18v10a1.5 1.5 0 0 1-1.5 1.5h-15A1.5 1.5 0 0 1 3 19Z"/>
      <path fill="currentColor" d="M4 5.5A1.5 1.5 0 0 1 5.5 4h13A1.5 1.5 0 0 1 20 5.5V9H4Z" opacity=".82"/>
      <rect x="10.4" y="8" width="3.2" height="3.6" rx="0.6" fill="#2b1608"/>
    </symbol>
  </defs>
</svg>
